<svg width="1439" height="711" viewBox="0 0 1439 711" fill="none" xmlns="http://www.w3.org/2000/svg">
  <g opacity="0.1" clip-path="url(#clip0_281_19397)">
    <line y1="47.5" x2="1439" y2="47.5" stroke="white" />
    <line y1="111.5" x2="1439" y2="111.5" stroke="white" />
    <line y1="175.5" x2="1439" y2="175.5" stroke="white" />
    <line y1="239.5" x2="1439" y2="239.5" stroke="white" />
    <line y1="303.5" x2="1439" y2="303.5" stroke="white" />
    <line y1="367.5" x2="1439" y2="367.5" stroke="white" />
    <line y1="431.5" x2="1439" y2="431.5" stroke="white" />
    <line y1="495.5" x2="1439" y2="495.5" stroke="white" />
    <line y1="559.5" x2="1439" y2="559.5" stroke="white" />
    <line y1="623.5" x2="1439" y2="623.5" stroke="white" />
    <line y1="687.5" x2="1439" y2="687.5" stroke="white" />
    <line x1="48" x2="48" y2="711" stroke="white" />
    <line x1="112" x2="112" y2="711" stroke="white" />
    <line x1="176" x2="176" y2="711" stroke="white" />
    <line x1="240" x2="240" y2="711" stroke="white" />
    <line x1="304" x2="304" y2="711" stroke="white" />
    <line x1="368" x2="368" y2="711" stroke="white" />
    <line x1="432" x2="432" y2="711" stroke="white" />
    <line x1="496" x2="496" y2="711" stroke="white" />
    <line x1="560" x2="560" y2="711" stroke="white" />
    <line x1="624" x2="624" y2="711" stroke="white" />
    <line x1="688" x2="688" y2="711" stroke="white" />
    <line x1="752" x2="752" y2="711" stroke="white" />
    <line x1="816" x2="816" y2="711" stroke="white" />
    <line x1="880" x2="880" y2="711" stroke="white" />
    <line x1="944" x2="944" y2="711" stroke="white" />
    <line x1="1008" x2="1008" y2="711" stroke="white" />
    <line x1="1072" x2="1072" y2="711" stroke="white" />
    <line x1="1136" x2="1136" y2="711" stroke="white" />
    <line x1="1200" x2="1200" y2="711" stroke="white" />
    <line x1="1264" x2="1264" y2="711" stroke="white" />
    <line x1="1328" x2="1328" y2="711" stroke="white" />
    <line x1="1392" x2="1392" y2="711" stroke="white" />
    <rect width="1439" height="711" fill="url(#paint0_linear_281_19397)" />
  </g>
  <defs>
    <linearGradient id="paint0_linear_281_19397" x1="719.5" y1="0" x2="719.5" y2="711" gradientUnits="userSpaceOnUse">
      <stop stop-color="#161615" stop-opacity="0" />
      <stop offset="0.9999" stop-color="#161615" />
      <stop offset="1" stop-color="#161615" />
    </linearGradient>
    <clipPath id="clip0_281_19397">
      <rect width="1439" height="711" fill="white" />
    </clipPath>
  </defs>
</svg>