<svg width="407" height="392" viewBox="0 0 407 392" fill="none" xmlns="http://www.w3.org/2000/svg">
  <g filter="url(#filter0_d_292_28080)">
    <rect x="135" y="160" width="112" height="72" rx="10" fill="#35E6BB" />
    <rect x="135" y="160" width="72" height="72" rx="10" fill="#1ACEA3" />
    <g filter="url(#filter1_i_292_28080)">
      <rect x="143" y="168" width="56" height="56" rx="8" fill="#35E6BB" />
      <g clip-path="url(#clip0_292_28080)">
        <path
          d="M180.073 199.829C180.54 199.829 180.993 199.667 181.354 199.37C181.715 199.072 181.961 198.659 182.05 198.2C182.139 197.741 182.065 197.265 181.842 196.855C181.618 196.444 181.259 196.124 180.825 195.95L181.165 192.533C181.47 192.479 181.757 192.356 182.006 192.173C182.255 191.989 182.458 191.751 182.6 191.477C182.742 191.202 182.818 190.899 182.824 190.59C182.829 190.281 182.764 189.975 182.632 189.695C182.5 189.416 182.306 189.171 182.064 188.979C181.822 188.786 181.539 188.653 181.237 188.588C180.935 188.522 180.622 188.528 180.322 188.603C180.022 188.679 179.744 188.822 179.509 189.022L176.18 186.799C176.243 186.606 176.277 186.405 176.28 186.202C176.279 185.669 176.067 185.159 175.691 184.782C175.314 184.405 174.804 184.193 174.271 184.192C173.739 184.19 173.227 184.4 172.849 184.775C172.471 185.15 172.256 185.66 172.253 186.192L165.804 188.033C165.652 187.79 165.45 187.582 165.211 187.424C164.972 187.265 164.702 187.159 164.419 187.114C164.136 187.068 163.846 187.084 163.57 187.16C163.293 187.235 163.036 187.369 162.815 187.552C162.595 187.736 162.416 187.964 162.291 188.222C162.166 188.48 162.098 188.762 162.091 189.049C162.084 189.335 162.139 189.62 162.251 189.884C162.363 190.148 162.531 190.384 162.742 190.578L161.559 192.933C161.284 192.883 161.002 192.891 160.73 192.956C160.458 193.022 160.203 193.143 159.98 193.312C159.758 193.482 159.573 193.696 159.438 193.94C159.303 194.185 159.22 194.455 159.196 194.734C159.171 195.012 159.204 195.293 159.293 195.557C159.383 195.822 159.527 196.066 159.715 196.272C159.904 196.478 160.134 196.643 160.39 196.755C160.645 196.868 160.922 196.926 161.202 196.926C161.252 196.926 161.3 196.914 161.35 196.911L162.177 199.112C161.783 199.406 161.511 199.833 161.411 200.314C161.312 200.795 161.392 201.295 161.636 201.721C161.88 202.147 162.271 202.469 162.737 202.626C163.202 202.783 163.708 202.765 164.161 202.574L165.569 204.394C165.297 204.669 165.11 205.016 165.03 205.395C164.949 205.773 164.98 206.167 165.117 206.528C165.254 206.89 165.492 207.205 165.803 207.435C166.114 207.665 166.485 207.801 166.871 207.827C167.257 207.852 167.642 207.767 167.981 207.579C168.319 207.392 168.597 207.112 168.78 206.771C168.964 206.43 169.046 206.044 169.016 205.659C168.987 205.273 168.847 204.904 168.613 204.595L170.672 202.602C170.893 202.686 171.127 202.73 171.363 202.732C171.897 202.731 172.409 202.519 172.786 202.141C173.164 201.763 173.376 201.252 173.377 200.718C173.377 200.692 173.37 200.667 173.369 200.642L178.419 198.959C178.603 199.227 178.85 199.446 179.138 199.597C179.426 199.749 179.747 199.828 180.073 199.829ZM161.202 195.801C161.026 195.801 160.854 195.749 160.707 195.651C160.561 195.553 160.447 195.414 160.38 195.252C160.312 195.089 160.295 194.91 160.329 194.738C160.363 194.565 160.448 194.407 160.572 194.282C160.697 194.158 160.855 194.073 161.028 194.039C161.2 194.005 161.379 194.022 161.542 194.09C161.704 194.157 161.843 194.271 161.941 194.417C162.038 194.563 162.091 194.735 162.091 194.911C162.09 195.147 161.997 195.373 161.83 195.54C161.663 195.707 161.437 195.8 161.202 195.801ZM180.962 197.814C180.962 197.99 180.91 198.162 180.812 198.308C180.714 198.455 180.575 198.569 180.413 198.636C180.25 198.703 180.072 198.721 179.899 198.687C179.727 198.652 179.568 198.568 179.444 198.443C179.32 198.319 179.235 198.161 179.201 197.988C179.166 197.816 179.184 197.637 179.251 197.474C179.318 197.312 179.432 197.173 179.579 197.075C179.725 196.978 179.897 196.926 180.073 196.926C180.308 196.926 180.534 197.02 180.701 197.186C180.867 197.353 180.961 197.579 180.962 197.814ZM180.798 189.667C180.974 189.667 181.146 189.72 181.292 189.817C181.439 189.915 181.553 190.054 181.62 190.216C181.687 190.379 181.705 190.558 181.67 190.73C181.636 190.903 181.551 191.061 181.427 191.185C181.303 191.31 181.144 191.394 180.972 191.429C180.799 191.463 180.62 191.445 180.458 191.378C180.296 191.311 180.157 191.197 180.059 191.05C179.961 190.904 179.909 190.732 179.909 190.556C179.91 190.321 180.003 190.095 180.17 189.928C180.337 189.761 180.563 189.668 180.798 189.667ZM180.046 192.422L179.706 195.838C179.413 195.892 179.137 196.012 178.897 196.187L175.409 193.475C175.504 193.24 175.554 192.988 175.554 192.734C175.554 192.729 175.553 192.724 175.553 192.719L179.111 191.648C179.336 191.996 179.662 192.266 180.046 192.422ZM178.885 189.959C178.821 190.152 178.787 190.353 178.784 190.556C178.784 190.561 178.786 190.566 178.786 190.571L175.228 191.642C175.007 191.3 174.688 191.033 174.312 190.875L174.613 188.181C174.961 188.118 175.286 187.965 175.556 187.736L178.885 189.959ZM174.429 192.734C174.429 192.91 174.377 193.082 174.28 193.228C174.182 193.374 174.043 193.488 173.881 193.555C173.718 193.623 173.54 193.64 173.367 193.606C173.195 193.572 173.036 193.487 172.912 193.363C172.787 193.238 172.703 193.08 172.668 192.908C172.634 192.735 172.652 192.556 172.719 192.394C172.786 192.231 172.9 192.093 173.046 191.995C173.193 191.897 173.364 191.845 173.54 191.845C173.776 191.845 174.002 191.939 174.169 192.106C174.335 192.272 174.429 192.498 174.429 192.734ZM174.266 185.312C174.442 185.313 174.614 185.365 174.76 185.462C174.906 185.56 175.02 185.699 175.087 185.861C175.155 186.024 175.172 186.203 175.138 186.375C175.104 186.548 175.019 186.706 174.895 186.83C174.77 186.955 174.612 187.039 174.439 187.074C174.267 187.108 174.088 187.09 173.926 187.023C173.763 186.956 173.625 186.842 173.527 186.696C173.429 186.549 173.377 186.378 173.377 186.202C173.377 185.966 173.471 185.74 173.638 185.573C173.804 185.406 174.03 185.313 174.266 185.312ZM166.118 189.114L172.567 187.273C172.788 187.625 173.112 187.899 173.494 188.061L173.194 190.755C172.697 190.843 172.253 191.115 171.948 191.516L166.102 189.273C166.107 189.22 166.118 189.168 166.118 189.114ZM169.712 195.277L172.068 194.099C172.192 194.232 172.334 194.348 172.489 194.444L171.331 198.707C171.125 198.712 170.921 198.749 170.727 198.816C170.323 198.351 169.706 197.622 169.195 197.015C169.415 196.789 169.577 196.512 169.667 196.21C169.757 195.907 169.772 195.587 169.712 195.277ZM165.698 190.323L171.543 192.566C171.538 192.622 171.526 192.676 171.526 192.734C171.528 192.855 171.54 192.975 171.563 193.094L169.206 194.272C168.974 194.018 168.679 193.828 168.352 193.721C168.024 193.614 167.675 193.594 167.337 193.663L165.357 190.67C165.484 190.568 165.598 190.452 165.698 190.323ZM168.623 195.637C168.623 195.813 168.571 195.985 168.473 196.131C168.376 196.277 168.237 196.391 168.074 196.459C167.912 196.526 167.733 196.544 167.561 196.509C167.388 196.475 167.23 196.391 167.105 196.266C166.981 196.142 166.896 195.984 166.862 195.811C166.827 195.639 166.845 195.46 166.912 195.297C166.98 195.135 167.094 194.996 167.24 194.898C167.386 194.8 167.558 194.748 167.734 194.748C167.969 194.748 168.195 194.842 168.362 195.009C168.529 195.175 168.623 195.401 168.623 195.637ZM164.105 188.216C164.281 188.216 164.452 188.268 164.599 188.365C164.745 188.463 164.859 188.602 164.926 188.764C164.993 188.927 165.011 189.106 164.977 189.278C164.942 189.45 164.858 189.609 164.733 189.733C164.609 189.858 164.451 189.942 164.278 189.977C164.106 190.011 163.927 189.993 163.765 189.926C163.602 189.859 163.463 189.745 163.366 189.599C163.268 189.453 163.216 189.281 163.216 189.105C163.216 188.869 163.31 188.643 163.476 188.476C163.643 188.31 163.869 188.216 164.105 188.216ZM163.748 191.083C163.865 191.105 163.985 191.117 164.105 191.119C164.169 191.119 164.23 191.106 164.293 191.1L166.337 194.191C166.093 194.43 165.913 194.728 165.816 195.055C165.26 195.008 164.236 194.902 163.203 194.783C163.171 194.269 162.943 193.788 162.565 193.438L163.748 191.083ZM162.952 195.888C164.451 196.066 165.306 196.158 165.806 196.188C165.856 196.364 165.929 196.533 166.024 196.689L164.21 198.888C163.949 198.768 163.666 198.705 163.379 198.704C163.328 198.704 163.281 198.715 163.231 198.719L162.404 196.517C162.629 196.348 162.815 196.134 162.952 195.888ZM163.379 201.607C163.203 201.607 163.031 201.555 162.885 201.457C162.739 201.359 162.625 201.221 162.558 201.058C162.49 200.896 162.473 200.717 162.507 200.544C162.541 200.372 162.626 200.214 162.75 200.089C162.875 199.965 163.033 199.88 163.205 199.846C163.378 199.811 163.557 199.829 163.719 199.896C163.882 199.964 164.02 200.077 164.118 200.224C164.216 200.37 164.268 200.542 164.268 200.718C164.268 200.953 164.174 201.179 164.008 201.346C163.841 201.513 163.615 201.607 163.379 201.607ZM167.008 206.687C166.832 206.687 166.66 206.635 166.514 206.538C166.368 206.44 166.254 206.301 166.187 206.139C166.119 205.976 166.102 205.798 166.136 205.625C166.17 205.453 166.255 205.294 166.379 205.17C166.504 205.045 166.662 204.961 166.835 204.926C167.007 204.892 167.186 204.91 167.348 204.977C167.511 205.044 167.65 205.158 167.747 205.304C167.845 205.45 167.897 205.622 167.897 205.798C167.897 206.034 167.803 206.26 167.637 206.427C167.47 206.593 167.244 206.687 167.008 206.687ZM167.699 203.914C167.337 203.773 166.94 203.746 166.562 203.838L165.033 201.862C165.154 201.684 165.245 201.487 165.303 201.28H169.439C169.505 201.511 169.613 201.728 169.758 201.921L167.699 203.914ZM169.439 200.155H165.303C165.25 199.966 165.17 199.786 165.064 199.621L166.86 197.444C167.277 197.656 167.756 197.707 168.208 197.589C168.504 197.941 169.263 198.843 169.8 199.464C169.635 199.668 169.512 199.903 169.439 200.155ZM171.363 201.607C171.187 201.607 171.015 201.555 170.869 201.457C170.723 201.359 170.609 201.221 170.541 201.058C170.474 200.896 170.457 200.717 170.491 200.544C170.525 200.372 170.61 200.214 170.734 200.089C170.858 199.965 171.017 199.88 171.189 199.846C171.362 199.811 171.54 199.829 171.703 199.896C171.865 199.964 172.004 200.077 172.102 200.224C172.2 200.37 172.252 200.542 172.252 200.718C172.252 200.953 172.158 201.179 171.991 201.346C171.825 201.513 171.599 201.607 171.363 201.607ZM178.066 197.891L173.017 199.574C172.857 199.346 172.652 199.153 172.414 199.008L173.572 194.745C173.984 194.738 174.384 194.604 174.716 194.362L178.204 197.073C178.109 197.309 178.059 197.56 178.058 197.814C178.058 197.841 178.065 197.865 178.066 197.891Z"
          fill="white" />
        <path
          d="M178.459 210.023H178.903C178.984 210.199 179.08 210.368 179.191 210.528L178.954 210.953C178.895 211.058 178.872 211.178 178.887 211.297C178.902 211.416 178.954 211.527 179.037 211.614C179.603 212.212 180.323 212.642 181.118 212.856C181.239 212.889 181.368 212.88 181.483 212.831C181.598 212.782 181.694 212.696 181.755 212.587L181.98 212.183C182.16 212.198 182.34 212.198 182.52 212.183L182.745 212.587C182.794 212.674 182.865 212.747 182.951 212.798C183.038 212.848 183.136 212.875 183.236 212.875C183.285 212.875 183.334 212.869 183.382 212.856C184.177 212.643 184.897 212.214 185.464 211.617C185.547 211.53 185.599 211.419 185.614 211.3C185.629 211.181 185.606 211.06 185.547 210.955L185.297 210.553C185.411 210.385 185.511 210.207 185.596 210.023H186.043C186.166 210.023 186.287 209.982 186.385 209.907C186.483 209.831 186.554 209.726 186.586 209.606C186.805 208.8 186.805 207.95 186.584 207.144C186.552 207.024 186.481 206.919 186.383 206.843C186.285 206.768 186.165 206.727 186.041 206.727H185.596C185.516 206.551 185.419 206.382 185.309 206.222L185.546 205.797C185.605 205.692 185.628 205.571 185.613 205.452C185.598 205.333 185.545 205.222 185.463 205.135C184.897 204.537 184.176 204.108 183.382 203.894C183.261 203.862 183.132 203.87 183.017 203.919C182.902 203.968 182.806 204.054 182.745 204.163L182.52 204.567C182.34 204.552 182.16 204.552 181.98 204.567L181.755 204.163C181.694 204.054 181.598 203.968 181.483 203.919C181.368 203.87 181.239 203.862 181.119 203.894C180.323 204.107 179.603 204.536 179.036 205.133C178.953 205.22 178.9 205.331 178.885 205.45C178.87 205.569 178.894 205.69 178.952 205.795L179.203 206.197C179.089 206.365 178.989 206.543 178.903 206.727H178.457C178.333 206.727 178.213 206.768 178.115 206.843C178.016 206.919 177.946 207.024 177.914 207.144C177.694 207.95 177.695 208.8 177.916 209.606C177.948 209.726 178.018 209.831 178.117 209.907C178.215 209.982 178.335 210.023 178.459 210.023ZM178.914 207.852H178.934C179.14 207.853 179.341 207.794 179.515 207.683C179.688 207.573 179.826 207.414 179.912 207.227C179.975 207.087 180.05 206.953 180.135 206.826C180.247 206.656 180.309 206.459 180.316 206.256C180.322 206.052 180.273 205.851 180.173 205.674L180.149 205.631C180.406 205.419 180.693 205.246 181 205.119L181.184 205.449C181.242 205.552 181.331 205.634 181.438 205.684C181.545 205.734 181.665 205.749 181.781 205.727C182.09 205.665 182.409 205.665 182.719 205.727C182.835 205.749 182.955 205.734 183.062 205.684C183.169 205.634 183.258 205.552 183.316 205.449L183.5 205.12C183.807 205.247 184.093 205.42 184.35 205.633L184.327 205.673C184.227 205.851 184.177 206.052 184.184 206.255C184.191 206.459 184.253 206.656 184.365 206.826C184.45 206.953 184.525 207.087 184.588 207.227C184.674 207.414 184.811 207.573 184.985 207.683C185.158 207.794 185.36 207.853 185.566 207.852H185.585C185.609 208.01 185.622 208.17 185.625 208.33C185.627 208.52 185.614 208.71 185.586 208.898H185.566C185.36 208.897 185.158 208.956 184.985 209.067C184.811 209.177 184.674 209.336 184.588 209.523C184.525 209.663 184.45 209.797 184.365 209.924C184.253 210.094 184.191 210.291 184.184 210.494C184.177 210.698 184.227 210.899 184.327 211.076L184.351 211.119C184.094 211.331 183.807 211.504 183.5 211.631L183.316 211.301C183.258 211.198 183.17 211.116 183.063 211.066C182.956 211.016 182.836 211.001 182.72 211.023C182.41 211.085 182.09 211.085 181.779 211.023C181.664 211.001 181.544 211.016 181.437 211.066C181.33 211.116 181.242 211.198 181.184 211.301L181 211.63C180.693 211.503 180.406 211.33 180.15 211.118L180.173 211.077C180.273 210.899 180.322 210.698 180.316 210.495C180.309 210.291 180.247 210.094 180.135 209.924C180.05 209.797 179.975 209.663 179.912 209.523C179.826 209.336 179.688 209.177 179.515 209.067C179.341 208.956 179.14 208.897 178.934 208.898H178.915C178.891 208.74 178.877 208.58 178.875 208.42C178.873 208.23 178.886 208.04 178.914 207.852Z"
          fill="white" />
        <path
          d="M182.25 210.344C182.639 210.344 183.02 210.228 183.344 210.012C183.668 209.796 183.92 209.488 184.069 209.128C184.218 208.769 184.257 208.373 184.181 207.991C184.105 207.609 183.917 207.258 183.642 206.983C183.367 206.708 183.016 206.52 182.634 206.444C182.252 206.368 181.856 206.407 181.497 206.556C181.137 206.705 180.829 206.957 180.613 207.281C180.397 207.605 180.281 207.986 180.281 208.375C180.282 208.897 180.49 209.397 180.859 209.766C181.228 210.135 181.728 210.343 182.25 210.344ZM182.25 207.531C182.417 207.531 182.58 207.581 182.719 207.673C182.858 207.766 182.966 207.898 183.03 208.052C183.093 208.206 183.11 208.376 183.078 208.54C183.045 208.703 182.965 208.854 182.847 208.972C182.729 209.09 182.578 209.17 182.415 209.203C182.251 209.235 182.081 209.218 181.927 209.155C181.773 209.091 181.641 208.983 181.548 208.844C181.456 208.705 181.406 208.542 181.406 208.375C181.406 208.151 181.495 207.937 181.654 207.779C181.812 207.62 182.026 207.531 182.25 207.531Z"
          fill="white" />
        <path
          d="M171 178.562C168.409 178.564 165.85 179.143 163.511 180.258C161.172 181.372 159.11 182.994 157.476 185.005C155.842 187.017 154.677 189.367 154.066 191.885C153.454 194.403 153.411 197.026 153.941 199.562C154.47 202.099 155.558 204.486 157.126 206.549C158.693 208.612 160.701 210.3 163.003 211.49C165.305 212.68 167.843 213.342 170.433 213.428C173.023 213.514 175.6 213.021 177.975 211.986L177.525 210.956C173.995 212.495 170.035 212.737 166.344 211.636C162.654 210.536 159.472 208.165 157.362 204.944C155.252 201.723 154.349 197.859 154.815 194.036C155.28 190.214 157.083 186.679 159.905 184.058C162.726 181.438 166.384 179.9 170.231 179.717C174.077 179.535 177.864 180.719 180.921 183.061C183.978 185.403 186.108 188.751 186.933 192.512C187.759 196.273 187.227 200.205 185.431 203.612L186.426 204.138C187.827 201.48 188.517 198.506 188.43 195.502C188.344 192.499 187.483 189.569 185.931 186.997C184.379 184.424 182.189 182.296 179.573 180.818C176.958 179.341 174.004 178.564 171 178.562Z"
          fill="white" />
      </g>
    </g>
  </g>
  <defs>
    <filter id="filter0_d_292_28080" x="-25" y="0" width="432" height="392" filterUnits="userSpaceOnUse"
      color-interpolation-filters="sRGB">
      <feFlood flood-opacity="0" result="BackgroundImageFix" />
      <feColorMatrix in="SourceAlpha" type="matrix" values="0 0 0 0 0 0 0 0 0 0 0 0 0 0 0 0 0 0 127 0"
        result="hardAlpha" />
      <feOffset />
      <feGaussianBlur stdDeviation="80" />
      <feComposite in2="hardAlpha" operator="out" />
      <feColorMatrix type="matrix" values="0 0 0 0 0.207843 0 0 0 0 0.901961 0 0 0 0 0.733333 0 0 0 0.65 0" />
      <feBlend mode="normal" in2="BackgroundImageFix" result="effect1_dropShadow_292_28080" />
      <feBlend mode="normal" in="SourceGraphic" in2="effect1_dropShadow_292_28080" result="shape" />
    </filter>
    <filter id="filter1_i_292_28080" x="143" y="168" width="56" height="56" filterUnits="userSpaceOnUse"
      color-interpolation-filters="sRGB">
      <feFlood flood-opacity="0" result="BackgroundImageFix" />
      <feBlend mode="normal" in="SourceGraphic" in2="BackgroundImageFix" result="shape" />
      <feColorMatrix in="SourceAlpha" type="matrix" values="0 0 0 0 0 0 0 0 0 0 0 0 0 0 0 0 0 0 127 0"
        result="hardAlpha" />
      <feOffset />
      <feGaussianBlur stdDeviation="3" />
      <feComposite in2="hardAlpha" operator="arithmetic" k2="-1" k3="1" />
      <feColorMatrix type="matrix" values="0 0 0 0 1 0 0 0 0 1 0 0 0 0 1 0 0 0 0.3 0" />
      <feBlend mode="normal" in2="shape" result="effect1_innerShadow_292_28080" />
    </filter>
    <clipPath id="clip0_292_28080">
      <rect width="36" height="36" fill="white" transform="translate(153 178)" />
    </clipPath>
  </defs>
</svg>