<svg width="452" height="382" viewBox="0 0 452 382" fill="none" xmlns="http://www.w3.org/2000/svg">
  <g filter="url(#filter0_d_292_28079)">
    <rect x="170" y="140" width="112" height="72" rx="10" fill="#0054B7" />
    <rect x="170" y="140" width="72" height="72" rx="10" fill="#003C84" />
    <g filter="url(#filter1_i_292_28079)">
      <rect x="178" y="148" width="56" height="56" rx="8" fill="#0054B7" />
      <g clip-path="url(#clip0_292_28079)">
        <path
          d="M222.506 180.234V170.739C223.365 170.506 224 169.72 224 168.787C224 167.672 223.093 166.765 221.978 166.765C221.472 166.765 221.009 166.953 220.654 167.262L214.44 162.811C214.523 162.591 214.568 162.352 214.568 162.103C214.568 160.989 213.661 160.082 212.547 160.082C211.614 160.082 210.828 160.716 210.595 161.576H208.492C208.259 160.716 207.472 160.082 206.54 160.082H205.427C204.724 159.318 203.717 158.839 202.6 158.839C200.784 158.839 199.266 160.083 198.865 161.783C198.327 161.586 197.756 161.483 197.179 161.483C196.442 161.483 195.734 161.643 195.074 161.96C194.811 162.085 194.701 162.4 194.826 162.663C194.952 162.926 195.267 163.037 195.53 162.911C196.046 162.663 196.601 162.538 197.179 162.538C197.833 162.538 198.478 162.706 199.044 163.023C200.332 163.703 201.131 165.008 201.131 166.429C201.131 166.721 201.367 166.957 201.659 166.957C201.95 166.957 202.186 166.721 202.186 166.429C202.186 164.733 201.298 163.169 199.846 162.268C200.044 160.914 201.199 159.893 202.6 159.893C204.137 159.893 205.387 161.143 205.387 162.679C205.387 162.72 205.387 182.143 205.387 182.194C205.387 182.485 205.623 182.721 205.914 182.721C206.205 182.721 206.442 182.485 206.442 182.194V177.69C207.412 177.733 208.268 177.08 208.498 176.174H212.002C212.17 176.797 212.629 177.301 213.224 177.532L212.219 187.239C211.434 187.367 210.8 187.949 210.595 188.706H208.492C208.259 187.846 207.472 187.212 206.54 187.212H206.442V184.655C206.442 184.363 206.206 184.127 205.914 184.127C205.623 184.127 205.387 184.363 205.387 184.655V187.479C205.387 190.031 203.326 192.107 200.793 192.107C198.273 192.151 196.108 189.93 196.14 187.425C196.14 186.799 196.257 186.191 196.49 185.621C196.601 185.352 196.473 185.043 196.203 184.932C195.934 184.821 195.626 184.95 195.515 185.219C195.228 185.919 195.085 186.665 195.085 187.425C195.085 188.046 195.186 188.654 195.384 189.239C195.058 189.32 194.724 189.362 194.385 189.362C192.092 189.362 190.226 187.497 190.226 185.204C190.226 184.352 190.489 183.52 190.973 182.826C191.237 182.899 191.693 182.965 192.09 182.943C192.185 183.066 192.291 183.181 192.409 183.287C192.888 183.719 193.497 183.952 194.138 183.952C194.184 183.952 194.23 183.951 194.277 183.948C194.567 183.933 194.791 183.685 194.776 183.394C194.76 183.103 194.512 182.878 194.221 182.895C193.812 182.916 193.419 182.777 193.114 182.503C192.81 182.229 192.63 181.852 192.609 181.443C192.59 181.075 192.703 180.712 192.929 180.422C193.108 180.192 193.066 179.86 192.836 179.682C192.607 179.503 192.275 179.545 192.096 179.774C191.715 180.265 191.523 180.877 191.556 181.498C191.562 181.625 191.578 181.75 191.602 181.873C190.122 181.674 189.069 180.509 189.055 179.046C189.055 177.931 189.714 176.918 190.735 176.467C190.736 176.466 190.737 176.465 190.738 176.465C190.739 176.465 190.739 176.465 190.74 176.464C191.105 176.299 191.495 176.215 191.899 176.215C192.191 176.215 192.427 175.979 192.427 175.687C192.427 175.396 192.191 175.16 191.899 175.16C191.503 175.16 191.116 175.22 190.745 175.337C190.416 174.731 190.243 174.054 190.243 173.356C190.243 171.352 191.671 169.633 193.639 169.268C195.384 168.884 197.375 169.712 198.254 171.271C197.635 171.842 197.221 172.594 197.072 173.437C196.893 174.454 197.121 175.48 197.713 176.325C197.815 176.472 197.979 176.55 198.145 176.55C198.25 176.55 198.355 176.519 198.447 176.455C198.686 176.288 198.744 175.959 198.577 175.721C198.146 175.105 197.981 174.36 198.111 173.62C198.242 172.88 198.652 172.236 199.267 171.805C200.086 171.232 201.159 171.137 202.067 171.56C202.332 171.682 202.645 171.568 202.768 171.304C202.891 171.039 202.776 170.726 202.512 170.603C201.427 170.099 200.171 170.131 199.121 170.666C198.056 168.881 195.891 167.883 193.811 168.17C193.512 167.616 193.355 166.997 193.355 166.361C193.355 165.658 193.548 164.97 193.912 164.374C194.064 164.125 193.985 163.8 193.737 163.649C193.488 163.497 193.163 163.575 193.012 163.824C192.546 164.586 192.3 165.464 192.3 166.361C192.3 167.074 192.455 167.771 192.751 168.41C190.65 169.109 189.188 171.087 189.188 173.356C189.188 174.209 189.394 175.038 189.786 175.783C188.685 176.488 188 177.713 188 179.046C188 180.462 188.771 181.746 189.975 182.422C189.453 183.25 189.171 184.216 189.171 185.204C189.171 188.078 191.51 190.417 194.384 190.417C194.871 190.417 195.351 190.35 195.815 190.217C196.808 192.02 198.713 193.161 200.793 193.161C202.416 193.164 203.95 192.472 205.019 191.255H206.54C207.472 191.255 208.259 190.621 208.492 189.761H210.595C210.828 190.621 211.614 191.255 212.547 191.255C213.662 191.255 214.568 190.349 214.568 189.234C214.568 188.97 214.517 188.718 214.425 188.487L220.844 183.858C221.167 184.079 221.558 184.208 221.978 184.208C223.093 184.208 224 183.301 224 182.186C224 181.254 223.365 180.467 222.506 180.234ZM220.799 180.545L219.261 179.291C219.035 179.107 218.703 179.141 218.519 179.367C218.335 179.592 218.369 179.925 218.594 180.109L220.133 181.362C220.02 181.614 219.957 181.893 219.957 182.186C219.957 182.497 220.027 182.792 220.154 183.056L213.792 187.643C213.634 187.519 213.458 187.419 213.268 187.346L214.273 177.643C214.59 177.593 214.882 177.468 215.132 177.288L216.685 178.553C216.783 178.633 216.901 178.672 217.018 178.672C217.171 178.672 217.323 178.606 217.427 178.478C217.611 178.252 217.577 177.92 217.351 177.736L215.799 176.471C215.912 176.219 215.975 175.941 215.975 175.647C215.975 175.333 215.903 175.036 215.775 174.77L220.873 170.479C221.049 170.594 221.243 170.683 221.451 170.739V180.234C221.214 180.299 220.994 180.405 220.799 180.545ZM212.002 175.12H208.485C208.24 174.237 207.396 173.605 206.442 173.647V164.125H206.54C207.472 164.125 208.259 163.491 208.492 162.631H210.595C210.788 163.342 211.359 163.898 212.078 164.07L213.363 173.713C212.701 173.916 212.183 174.449 212.002 175.12ZM214.422 173.681L213.137 164.037C213.391 163.959 213.625 163.833 213.825 163.668L220.065 168.137C219.995 168.341 219.957 168.56 219.957 168.787C219.957 169.112 220.034 169.419 220.171 169.691L215.085 173.972C214.886 173.838 214.662 173.738 214.422 173.681ZM221.978 167.82C222.511 167.82 222.945 168.254 222.945 168.787C222.945 169.32 222.511 169.754 221.978 169.754C221.445 169.754 221.011 169.32 221.011 168.787C221.011 168.254 221.445 167.82 221.978 167.82ZM212.547 161.136C213.08 161.136 213.514 161.57 213.514 162.103C213.514 162.637 213.08 163.071 212.547 163.071C212.014 163.071 211.58 162.637 211.58 162.103C211.58 161.57 212.013 161.136 212.547 161.136ZM206.54 161.136C207.073 161.136 207.507 161.57 207.507 162.103C207.507 162.637 207.073 163.071 206.54 163.071H206.442C206.442 163.054 206.441 162.685 206.442 162.68C206.442 162.131 206.325 161.609 206.117 161.136H206.54ZM206.54 176.636H206.442V174.702C207.007 174.656 207.51 175.095 207.507 175.669C207.507 176.202 207.073 176.636 206.54 176.636ZM213.953 174.68C214.486 174.68 214.92 175.114 214.92 175.647C214.92 176.18 214.486 176.614 213.953 176.614C213.42 176.614 212.986 176.18 212.986 175.647C212.986 175.114 213.42 174.68 213.953 174.68ZM206.54 190.201H205.757C206.081 189.603 206.294 188.95 206.387 188.267H206.54C207.073 188.267 207.507 188.701 207.507 189.234C207.507 189.767 207.073 190.201 206.54 190.201ZM212.547 190.201C212.014 190.201 211.58 189.767 211.58 189.234C211.58 188.701 212.014 188.267 212.547 188.267C213.08 188.267 213.514 188.701 213.514 189.234C213.514 189.767 213.08 190.201 212.547 190.201ZM221.978 183.153C221.445 183.153 221.011 182.719 221.011 182.186C221.011 181.653 221.445 181.219 221.978 181.219C222.512 181.219 222.945 181.653 222.945 182.186C222.945 182.719 222.511 183.153 221.978 183.153Z"
          fill="white" />
        <path
          d="M197.044 183.767C197.149 183.891 197.298 183.954 197.448 183.954C197.568 183.954 197.689 183.914 197.788 183.83C198.5 183.228 199.356 182.87 200.279 182.782C200.654 183.496 201.273 184.038 202.036 184.316C202.096 184.337 202.157 184.347 202.217 184.347C202.432 184.347 202.634 184.214 202.712 184C202.812 183.727 202.671 183.424 202.397 183.324C201.266 182.913 200.681 181.658 201.093 180.527C201.192 180.254 201.051 179.951 200.777 179.851C200.504 179.752 200.201 179.893 200.102 180.167C199.913 180.685 199.861 181.229 199.942 181.759C198.894 181.903 197.924 182.334 197.107 183.024C196.885 183.212 196.857 183.545 197.044 183.767Z"
          fill="white" />
      </g>
    </g>
  </g>
  <defs>
    <filter id="filter0_d_292_28079" x="0" y="-30" width="452" height="412" filterUnits="userSpaceOnUse"
      color-interpolation-filters="sRGB">
      <feFlood flood-opacity="0" result="BackgroundImageFix" />
      <feColorMatrix in="SourceAlpha" type="matrix" values="0 0 0 0 0 0 0 0 0 0 0 0 0 0 0 0 0 0 127 0"
        result="hardAlpha" />
      <feMorphology radius="10" operator="dilate" in="SourceAlpha" result="effect1_dropShadow_292_28079" />
      <feOffset />
      <feGaussianBlur stdDeviation="80" />
      <feComposite in2="hardAlpha" operator="out" />
      <feColorMatrix type="matrix" values="0 0 0 0 0.00392157 0 0 0 0 0.333333 0 0 0 0 0.717647 0 0 0 0.75 0" />
      <feBlend mode="normal" in2="BackgroundImageFix" result="effect1_dropShadow_292_28079" />
      <feBlend mode="normal" in="SourceGraphic" in2="effect1_dropShadow_292_28079" result="shape" />
    </filter>
    <filter id="filter1_i_292_28079" x="178" y="148" width="56" height="56" filterUnits="userSpaceOnUse"
      color-interpolation-filters="sRGB">
      <feFlood flood-opacity="0" result="BackgroundImageFix" />
      <feBlend mode="normal" in="SourceGraphic" in2="BackgroundImageFix" result="shape" />
      <feColorMatrix in="SourceAlpha" type="matrix" values="0 0 0 0 0 0 0 0 0 0 0 0 0 0 0 0 0 0 127 0"
        result="hardAlpha" />
      <feOffset />
      <feGaussianBlur stdDeviation="3" />
      <feComposite in2="hardAlpha" operator="arithmetic" k2="-1" k3="1" />
      <feColorMatrix type="matrix" values="0 0 0 0 1 0 0 0 0 1 0 0 0 0 1 0 0 0 0.3 0" />
      <feBlend mode="normal" in2="shape" result="effect1_innerShadow_292_28079" />
    </filter>
    <clipPath id="clip0_292_28079">
      <rect width="36" height="36" fill="white" transform="translate(188 158)" />
    </clipPath>
  </defs>
</svg>