<svg width="412" height="392" viewBox="0 0 412 392" fill="none" xmlns="http://www.w3.org/2000/svg">
  <g filter="url(#filter0_d_292_28081)">
    <rect x="160" y="160" width="112" height="72" rx="10" fill="#FFD233" />
    <rect x="160" y="160" width="72" height="72" rx="10" fill="#FFC700" />
    <g filter="url(#filter1_i_292_28081)">
      <rect x="168" y="168" width="56" height="56" rx="8" fill="#FFD233" />
      <path
        d="M189.005 201.175L183.83 195.999L189.005 190.823C189.949 189.88 189.949 188.352 189.005 187.408C188.063 186.465 186.534 186.465 185.591 187.408L178.707 194.291C178.255 194.744 178 195.358 178 195.999C178 196.639 178.255 197.253 178.707 197.706L185.591 204.589C186.063 205.061 186.68 205.296 187.298 205.296C187.916 205.296 188.534 205.061 189.005 204.589C189.949 203.646 189.949 202.118 189.005 201.175Z"
        fill="white" />
      <path
        d="M213.293 194.291L206.409 187.408C205.466 186.465 203.937 186.465 202.995 187.408C202.051 188.352 202.051 189.879 202.995 190.823L208.17 195.999L202.995 201.175C202.051 202.118 202.051 203.646 202.995 204.589C203.466 205.061 204.084 205.296 204.702 205.296C205.32 205.296 205.937 205.061 206.409 204.589L213.293 197.706C213.745 197.253 214 196.639 214 195.999C214 195.358 213.745 194.744 213.293 194.291Z"
        fill="white" />
      <path
        d="M201.502 182.275C200.272 181.776 198.857 182.362 198.353 183.597L188.96 206.573C188.455 207.808 189.046 209.218 190.281 209.722C190.579 209.844 190.889 209.903 191.194 209.903C192.145 209.903 193.047 209.336 193.429 208.401L202.823 185.424C203.327 184.19 202.736 182.78 201.502 182.275Z"
        fill="white" />
    </g>
  </g>
  <defs>
    <filter id="filter0_d_292_28081" x="0" y="0" width="432" height="392" filterUnits="userSpaceOnUse"
      color-interpolation-filters="sRGB">
      <feFlood flood-opacity="0" result="BackgroundImageFix" />
      <feColorMatrix in="SourceAlpha" type="matrix" values="0 0 0 0 0 0 0 0 0 0 0 0 0 0 0 0 0 0 127 0"
        result="hardAlpha" />
      <feOffset />
      <feGaussianBlur stdDeviation="80" />
      <feComposite in2="hardAlpha" operator="out" />
      <feColorMatrix type="matrix" values="0 0 0 0 1 0 0 0 0 0.780392 0 0 0 0 0 0 0 0 0.6 0" />
      <feBlend mode="normal" in2="BackgroundImageFix" result="effect1_dropShadow_292_28081" />
      <feBlend mode="normal" in="SourceGraphic" in2="effect1_dropShadow_292_28081" result="shape" />
    </filter>
    <filter id="filter1_i_292_28081" x="168" y="168" width="56" height="56" filterUnits="userSpaceOnUse"
      color-interpolation-filters="sRGB">
      <feFlood flood-opacity="0" result="BackgroundImageFix" />
      <feBlend mode="normal" in="SourceGraphic" in2="BackgroundImageFix" result="shape" />
      <feColorMatrix in="SourceAlpha" type="matrix" values="0 0 0 0 0 0 0 0 0 0 0 0 0 0 0 0 0 0 127 0"
        result="hardAlpha" />
      <feOffset />
      <feGaussianBlur stdDeviation="3" />
      <feComposite in2="hardAlpha" operator="arithmetic" k2="-1" k3="1" />
      <feColorMatrix type="matrix" values="0 0 0 0 1 0 0 0 0 1 0 0 0 0 1 0 0 0 0.3 0" />
      <feBlend mode="normal" in2="shape" result="effect1_innerShadow_292_28081" />
    </filter>
  </defs>
</svg>