<svg width="44" height="44" viewBox="0 0 44 44" fill="none" xmlns="http://www.w3.org/2000/svg">
  <path
    d="M38.5 13.7085H5.5C5.02448 13.7085 4.625 13.309 4.625 12.8335C4.625 12.358 5.02448 11.9585 5.5 11.9585H38.5C38.9755 11.9585 39.375 12.358 39.375 12.8335C39.375 13.309 38.9755 13.7085 38.5 13.7085Z"
    fill="#FAFAFA" stroke="#FAFAFA" />
  <path
    d="M38.5 22.875H5.5C5.02448 22.875 4.625 22.4755 4.625 22C4.625 21.5245 5.02448 21.125 5.5 21.125H38.5C38.9755 21.125 39.375 21.5245 39.375 22C39.375 22.4755 38.9755 22.875 38.5 22.875Z"
    fill="#FAFAFA" stroke="#FAFAFA" />
  <path
    d="M38.5 32.5415H5.5C4.74833 32.5415 4.125 31.9182 4.125 31.1665C4.125 30.4148 4.74833 29.7915 5.5 29.7915H38.5C39.2517 29.7915 39.875 30.4148 39.875 31.1665C39.875 31.9182 39.2517 32.5415 38.5 32.5415Z"
    fill="#FAFAFA" />
</svg>